<svg class="animated" id="freepik_stories-software-engineer" xmlns="http://www.w3.org/2000/svg" viewBox="0 0 500 500" version="1.1" xmlns:xlink="http://www.w3.org/1999/xlink" xmlns:svgjs="http://svgjs.com/svgjs"><style>svg#freepik_stories-software-engineer:not(.animated) .animable {opacity: 0;}svg#freepik_stories-software-engineer.animated #freepik--App--inject-8 {animation: 1.5s Infinite  linear floating;animation-delay: 0s;}svg#freepik_stories-software-engineer.animated #freepik--Character--inject-8 {animation: 1.5s Infinite  linear floating;animation-delay: 0s;}            @keyframes floating {                0% {                    opacity: 1;                    transform: translateY(0px);                }                50% {                    transform: translateY(-10px);                }                100% {                    opacity: 1;                    transform: translateY(0px);                }            }        .animator-hidden { display: none; }</style><g id="freepik--background-complete--inject-8" class="animable animator-hidden" style="transform-origin: 250px 228.23px;"><rect y="382.4" width="500" height="0.25" style="fill: rgb(235, 235, 235); transform-origin: 250px 382.525px;" id="el3137x3wulil" class="animable"></rect><rect x="416.78" y="398.49" width="33.12" height="0.25" style="fill: rgb(235, 235, 235); transform-origin: 433.34px 398.615px;" id="elsw1t6ufwurm" class="animable"></rect><rect x="322.53" y="401.21" width="8.69" height="0.25" style="fill: rgb(235, 235, 235); transform-origin: 326.875px 401.335px;" id="elgbykdfke846" class="animable"></rect><rect x="396.59" y="389.21" width="19.19" height="0.25" style="fill: rgb(235, 235, 235); transform-origin: 406.185px 389.335px;" id="elo103m4ag7mr" class="animable"></rect><rect x="52.46" y="390.89" width="43.19" height="0.25" style="fill: rgb(235, 235, 235); transform-origin: 74.055px 391.015px;" id="elj0foxgp13be" class="animable"></rect><rect x="104.56" y="390.89" width="6.33" height="0.25" style="fill: rgb(235, 235, 235); transform-origin: 107.725px 391.015px;" id="eloml11pfzre9" class="animable"></rect><rect x="131.47" y="395.11" width="93.68" height="0.25" style="fill: rgb(235, 235, 235); transform-origin: 178.31px 395.235px;" id="elnv85uv8b4d" class="animable"></rect><path d="M237,337.8H43.91a5.71,5.71,0,0,1-5.7-5.71V60.66A5.71,5.71,0,0,1,43.91,55H237a5.71,5.71,0,0,1,5.71,5.71V332.09A5.71,5.71,0,0,1,237,337.8ZM43.91,55.2a5.46,5.46,0,0,0-5.45,5.46V332.09a5.46,5.46,0,0,0,5.45,5.46H237a5.47,5.47,0,0,0,5.46-5.46V60.66A5.47,5.47,0,0,0,237,55.2Z" style="fill: rgb(235, 235, 235); transform-origin: 140.46px 196.4px;" id="elwaktcn0xlx" class="animable"></path><path d="M453.31,337.8H260.21a5.72,5.72,0,0,1-5.71-5.71V60.66A5.72,5.72,0,0,1,260.21,55h193.1A5.71,5.71,0,0,1,459,60.66V332.09A5.71,5.71,0,0,1,453.31,337.8ZM260.21,55.2a5.47,5.47,0,0,0-5.46,5.46V332.09a5.47,5.47,0,0,0,5.46,5.46h193.1a5.47,5.47,0,0,0,5.46-5.46V60.66a5.47,5.47,0,0,0-5.46-5.46Z" style="fill: rgb(235, 235, 235); transform-origin: 356.75px 196.4px;" id="eld6e0fwu3ymr" class="animable"></path><g id="elt0dzwl7s4gb"><rect x="435.97" y="326.28" width="31.7" height="56.12" style="fill: rgb(240, 240, 240); transform-origin: 451.82px 354.34px; transform: rotate(180deg);" class="animable" id="elaustc51wodl"></rect></g><g id="el6s7kwb4amo4"><rect x="408.21" y="338.59" width="31.7" height="43.81" style="fill: rgb(240, 240, 240); transform-origin: 424.06px 360.495px; transform: rotate(180deg);" class="animable" id="elagvqv4yy08b"></rect></g><g id="ell6ugcsr3wn"><rect x="387.94" y="302.49" width="31.7" height="79.91" style="fill: rgb(240, 240, 240); transform-origin: 403.79px 342.445px; transform: rotate(180deg);" class="animable" id="elqsdo07j7vl"></rect></g><g id="elt6xyvjguxk"><rect x="366.88" y="237.7" width="31.7" height="144.7" style="fill: rgb(240, 240, 240); transform-origin: 382.73px 310.05px; transform: rotate(180deg);" class="animable" id="elube358jxzw"></rect></g><g id="eldra5t945tev"><rect x="288.48" y="248.96" width="85.06" height="133.44" style="fill: rgb(240, 240, 240); transform-origin: 331.01px 315.68px; transform: rotate(180deg);" class="animable" id="ela46gd7ujs"></rect></g><rect x="27.57" y="332.18" width="44.88" height="50.22" style="fill: rgb(245, 245, 245); transform-origin: 50.01px 357.29px;" id="elljxyv0tbeqq" class="animable"></rect><rect x="66.87" y="343.19" width="44.88" height="39.2" style="fill: rgb(245, 245, 245); transform-origin: 89.31px 362.79px;" id="el1zekd7awfmf" class="animable"></rect><rect x="95.57" y="310.89" width="44.88" height="71.51" style="fill: rgb(245, 245, 245); transform-origin: 118.01px 346.645px;" id="el67xagorfr9q" class="animable"></rect><rect x="125.4" y="252.91" width="44.88" height="129.49" style="fill: rgb(245, 245, 245); transform-origin: 147.84px 317.655px;" id="elyo6mvewtwli" class="animable"></rect><g id="elbnqo1xeie9"><rect x="161.21" y="224.21" width="73.44" height="158.19" style="fill: rgb(240, 240, 240); transform-origin: 197.93px 303.305px; transform: rotate(180deg);" class="animable" id="elgksgq3xpj86"></rect></g><g id="elvtss3os25ac"><rect x="168.21" y="230.84" width="3.5" height="19.25" style="fill: rgb(245, 245, 245); transform-origin: 169.96px 240.465px; transform: rotate(180deg);" class="animable" id="elxr71u5vtjw"></rect></g><g id="elj93vs25jxij"><rect x="168.21" y="260.95" width="3.5" height="19.25" style="fill: rgb(245, 245, 245); transform-origin: 169.96px 270.575px; transform: rotate(180deg);" class="animable" id="el4c8xihiqbkk"></rect></g><g id="el9yqqf2xh1zo"><rect x="168.21" y="291.05" width="3.5" height="19.25" style="fill: rgb(245, 245, 245); transform-origin: 169.96px 300.675px; transform: rotate(180deg);" class="animable" id="elmdiz5fe19xl"></rect></g><g id="eltps0qxvq2n"><rect x="168.21" y="321.15" width="3.5" height="19.25" style="fill: rgb(245, 245, 245); transform-origin: 169.96px 330.775px; transform: rotate(180deg);" class="animable" id="el1rxvdhjldp5"></rect></g><g id="eljjt0zwtrqkr"><rect x="168.21" y="351.26" width="3.5" height="19.25" style="fill: rgb(245, 245, 245); transform-origin: 169.96px 360.885px; transform: rotate(180deg);" class="animable" id="el5t1riojwmni"></rect></g><g id="eldl3qdpxhoyp"><rect x="180.6" y="230.84" width="3.5" height="19.25" style="fill: rgb(245, 245, 245); transform-origin: 182.35px 240.465px; transform: rotate(180deg);" class="animable" id="elpw0wc99kh57"></rect></g><g id="elc2h2tykx9sv"><rect x="180.6" y="260.95" width="3.5" height="19.25" style="fill: rgb(245, 245, 245); transform-origin: 182.35px 270.575px; transform: rotate(180deg);" class="animable" id="el70t3lq2nsav"></rect></g><g id="el3bwfhmo59dw"><rect x="180.6" y="291.05" width="3.5" height="19.25" style="fill: rgb(245, 245, 245); transform-origin: 182.35px 300.675px; transform: rotate(180deg);" class="animable" id="elhgwbo491wn"></rect></g><g id="elnpxyezsvjjr"><rect x="180.6" y="321.15" width="3.5" height="19.25" style="fill: rgb(245, 245, 245); transform-origin: 182.35px 330.775px; transform: rotate(180deg);" class="animable" id="el1ypk0bc7mz3"></rect></g><g id="el7mxpzn5ftkx"><rect x="180.6" y="351.26" width="3.5" height="19.25" style="fill: rgb(245, 245, 245); transform-origin: 182.35px 360.885px; transform: rotate(180deg);" class="animable" id="elk69sm0jeuma"></rect></g><g id="ely4dq1ldlahm"><rect x="192.99" y="230.84" width="3.5" height="19.25" style="fill: rgb(245, 245, 245); transform-origin: 194.74px 240.465px; transform: rotate(180deg);" class="animable" id="el77jpbr8gnwy"></rect></g><g id="elujv4xdbzxj"><rect x="192.99" y="260.95" width="3.5" height="19.25" style="fill: rgb(245, 245, 245); transform-origin: 194.74px 270.575px; transform: rotate(180deg);" class="animable" id="el54rhlcq15am"></rect></g><g id="elxy74w4snyh"><rect x="192.99" y="291.05" width="3.5" height="19.25" style="fill: rgb(245, 245, 245); transform-origin: 194.74px 300.675px; transform: rotate(180deg);" class="animable" id="elue155093ssc"></rect></g><g id="elgfz0kq5by2l"><rect x="192.99" y="321.15" width="3.5" height="19.25" style="fill: rgb(245, 245, 245); transform-origin: 194.74px 330.775px; transform: rotate(180deg);" class="animable" id="el4t3rt0f2omf"></rect></g><g id="elreywjc93ryg"><rect x="192.99" y="351.26" width="3.5" height="19.25" style="fill: rgb(245, 245, 245); transform-origin: 194.74px 360.885px; transform: rotate(180deg);" class="animable" id="elikk9yfinvxc"></rect></g><g id="elwlnaf0d8nq9"><rect x="205.38" y="230.84" width="3.5" height="19.25" style="fill: rgb(245, 245, 245); transform-origin: 207.13px 240.465px; transform: rotate(180deg);" class="animable" id="el93d4p57u9tq"></rect></g><g id="el9qd4m2ijetp"><rect x="205.38" y="260.95" width="3.5" height="19.25" style="fill: rgb(245, 245, 245); transform-origin: 207.13px 270.575px; transform: rotate(180deg);" class="animable" id="elewlpawrz0wf"></rect></g><g id="elv6qcmmkx7df"><rect x="205.38" y="291.05" width="3.5" height="19.25" style="fill: rgb(245, 245, 245); transform-origin: 207.13px 300.675px; transform: rotate(180deg);" class="animable" id="el2q6dr55jjeu"></rect></g><g id="el9pobi579gkj"><rect x="205.38" y="321.15" width="3.5" height="19.25" style="fill: rgb(245, 245, 245); transform-origin: 207.13px 330.775px; transform: rotate(180deg);" class="animable" id="elgpytblf383e"></rect></g><g id="elhkhbakkij3t"><rect x="205.38" y="351.26" width="3.5" height="19.25" style="fill: rgb(245, 245, 245); transform-origin: 207.13px 360.885px; transform: rotate(180deg);" class="animable" id="elnlisiss0b7p"></rect></g><g id="el2x0r5b42a6e"><rect x="217.78" y="230.84" width="3.5" height="19.25" style="fill: rgb(245, 245, 245); transform-origin: 219.53px 240.465px; transform: rotate(180deg);" class="animable" id="elig7pd4jgsrj"></rect></g><g id="elavd0hr75cwc"><rect x="217.78" y="260.95" width="3.5" height="19.25" style="fill: rgb(245, 245, 245); transform-origin: 219.53px 270.575px; transform: rotate(180deg);" class="animable" id="elkj6t8iy7sf"></rect></g><g id="elk76kwswrrmb"><rect x="217.78" y="291.05" width="3.5" height="19.25" style="fill: rgb(245, 245, 245); transform-origin: 219.53px 300.675px; transform: rotate(180deg);" class="animable" id="el74tou34yrjx"></rect></g><g id="elhgbzefy08rq"><rect x="217.78" y="321.15" width="3.5" height="19.25" style="fill: rgb(245, 245, 245); transform-origin: 219.53px 330.775px; transform: rotate(180deg);" class="animable" id="elne94y9ffgqo"></rect></g><g id="elz57c6xfly5b"><rect x="217.78" y="351.26" width="3.5" height="19.25" style="fill: rgb(245, 245, 245); transform-origin: 219.53px 360.885px; transform: rotate(180deg);" class="animable" id="elp3cywb559ph"></rect></g><g id="elwuqpxkkuqxi"><polygon points="234.66 224.21 219.52 224.21 212.94 382.4 234.66 382.4 234.66 224.21" style="fill: rgb(224, 224, 224); opacity: 0.5; transform-origin: 223.8px 303.305px;" class="animable" id="elcc4e8lbqmlu"></polygon></g><polygon points="355.86 115.17 266.77 125.33 266.77 382.4 355.86 382.4 355.86 115.17" style="fill: rgb(240, 240, 240); transform-origin: 311.315px 248.785px;" id="eliv3fyyblbk" class="animable"></polygon><rect x="355.86" y="115.17" width="71.28" height="267.23" style="fill: rgb(230, 230, 230); transform-origin: 391.5px 248.785px;" id="elro9w0lulnsc" class="animable"></rect><rect x="266.77" y="137.31" width="160.37" height="1.37" style="fill: rgb(224, 224, 224); transform-origin: 346.955px 137.995px;" id="el9tjisdsxa2" class="animable"></rect><rect x="266.77" y="151.86" width="160.37" height="1.37" style="fill: rgb(224, 224, 224); transform-origin: 346.955px 152.545px;" id="elshw0tx04vii" class="animable"></rect><rect x="266.77" y="166.41" width="160.37" height="1.37" style="fill: rgb(224, 224, 224); transform-origin: 346.955px 167.095px;" id="el025h9a1byfhs" class="animable"></rect><rect x="266.77" y="180.96" width="160.37" height="1.37" style="fill: rgb(224, 224, 224); transform-origin: 346.955px 181.645px;" id="ely6fp7i9uxtf" class="animable"></rect><rect x="266.77" y="195.51" width="160.37" height="1.37" style="fill: rgb(224, 224, 224); transform-origin: 346.955px 196.195px;" id="elr45uxb25i4f" class="animable"></rect><rect x="266.77" y="210.06" width="160.37" height="1.37" style="fill: rgb(224, 224, 224); transform-origin: 346.955px 210.745px;" id="elnk9guge6zus" class="animable"></rect><rect x="266.77" y="224.61" width="160.37" height="1.37" style="fill: rgb(224, 224, 224); transform-origin: 346.955px 225.295px;" id="el4vem1te5fom" class="animable"></rect><rect x="266.77" y="239.16" width="160.37" height="1.37" style="fill: rgb(224, 224, 224); transform-origin: 346.955px 239.845px;" id="el1akbdgiswuk" class="animable"></rect><rect x="266.77" y="253.71" width="160.37" height="1.37" style="fill: rgb(224, 224, 224); transform-origin: 346.955px 254.395px;" id="elhyxap5u6xtq" class="animable"></rect><rect x="266.77" y="268.26" width="160.37" height="1.37" style="fill: rgb(224, 224, 224); transform-origin: 346.955px 268.945px;" id="elevptit7sb6f" class="animable"></rect><rect x="266.77" y="282.81" width="160.37" height="1.37" style="fill: rgb(224, 224, 224); transform-origin: 346.955px 283.495px;" id="elpfhpbsfsjag" class="animable"></rect><rect x="266.77" y="297.37" width="160.37" height="1.37" style="fill: rgb(224, 224, 224); transform-origin: 346.955px 298.055px;" id="eldaroj6oxrke" class="animable"></rect><rect x="266.77" y="311.92" width="160.37" height="1.37" style="fill: rgb(224, 224, 224); transform-origin: 346.955px 312.605px;" id="elrjzn1w3wyd" class="animable"></rect><rect x="266.77" y="326.47" width="160.37" height="1.37" style="fill: rgb(224, 224, 224); transform-origin: 346.955px 327.155px;" id="elkjq032e3z0k" class="animable"></rect><rect x="266.77" y="341.02" width="160.37" height="1.37" style="fill: rgb(224, 224, 224); transform-origin: 346.955px 341.705px;" id="elruhnor0fa1" class="animable"></rect><rect x="266.77" y="355.57" width="160.37" height="1.37" style="fill: rgb(224, 224, 224); transform-origin: 346.955px 356.255px;" id="el7cnyqt2aju4" class="animable"></rect><rect x="266.77" y="370.12" width="160.37" height="1.37" style="fill: rgb(224, 224, 224); transform-origin: 346.955px 370.805px;" id="elofd09g0igbc" class="animable"></rect><g id="elkhmq816cnah"><rect x="108.02" y="161.81" width="42.26" height="220.59" style="fill: rgb(240, 240, 240); transform-origin: 129.15px 272.105px; transform: rotate(180deg);" class="animable" id="elt6y2mq96pqo"></rect></g><polygon points="108.02 161.81 150.28 161.81 134.73 142.33 74.21 142.33 108.02 161.81" style="fill: rgb(250, 250, 250); transform-origin: 112.245px 152.07px;" id="elj7f40bmqhzb" class="animable"></polygon><polygon points="108.02 161.81 74.21 142.33 74.21 382.4 108.02 382.4 108.02 161.81" style="fill: rgb(235, 235, 235); transform-origin: 91.115px 262.365px;" id="el186dzm0pmxs" class="animable"></polygon><g id="elxp7ovj9ud1k"><rect x="74.21" y="172.09" width="76.06" height="1.17" style="fill: rgb(224, 224, 224); transform-origin: 112.24px 172.675px; transform: rotate(180deg);" class="animable" id="el0esrr4bxllrt"></rect></g><g id="elvn7ttxcgz3g"><rect x="74.21" y="184.58" width="76.06" height="1.17" style="fill: rgb(224, 224, 224); transform-origin: 112.24px 185.165px; transform: rotate(180deg);" class="animable" id="elcd9tsedkcxf"></rect></g><g id="ellouewdbs8we"><rect x="74.21" y="197.06" width="76.06" height="1.17" style="fill: rgb(224, 224, 224); transform-origin: 112.24px 197.645px; transform: rotate(180deg);" class="animable" id="elzjnxusl2hfa"></rect></g><g id="elz0ytw69cx5"><rect x="74.21" y="209.55" width="76.06" height="1.17" style="fill: rgb(224, 224, 224); transform-origin: 112.24px 210.135px; transform: rotate(180deg);" class="animable" id="elfnabq4ob3e"></rect></g><g id="elfkyf6cm8b2f"><rect x="74.21" y="222.03" width="76.06" height="1.17" style="fill: rgb(224, 224, 224); transform-origin: 112.24px 222.615px; transform: rotate(180deg);" class="animable" id="eldsguafm70vm"></rect></g><g id="elr2jqlcqmtfm"><rect x="74.21" y="234.52" width="76.06" height="1.17" style="fill: rgb(224, 224, 224); transform-origin: 112.24px 235.105px; transform: rotate(180deg);" class="animable" id="elc1lrhc3jr7m"></rect></g><g id="el45yujwojjgc"><rect x="74.21" y="247" width="76.06" height="1.17" style="fill: rgb(224, 224, 224); transform-origin: 112.24px 247.585px; transform: rotate(180deg);" class="animable" id="el6zch06gs5u7"></rect></g><g id="el37103jrljmz"><rect x="74.21" y="259.49" width="76.06" height="1.17" style="fill: rgb(224, 224, 224); transform-origin: 112.24px 260.075px; transform: rotate(180deg);" class="animable" id="elfrcabbnt4cs"></rect></g><g id="el2nmae0kbjdd"><rect x="74.21" y="271.98" width="76.06" height="1.17" style="fill: rgb(224, 224, 224); transform-origin: 112.24px 272.565px; transform: rotate(180deg);" class="animable" id="eldq4bhso74k9"></rect></g><g id="elkcvwzwehvk"><rect x="74.21" y="284.46" width="76.06" height="1.17" style="fill: rgb(224, 224, 224); transform-origin: 112.24px 285.045px; transform: rotate(180deg);" class="animable" id="el6ay6sbm6ouo"></rect></g><g id="elc6mh45vmihs"><rect x="74.21" y="296.95" width="76.06" height="1.17" style="fill: rgb(224, 224, 224); transform-origin: 112.24px 297.535px; transform: rotate(180deg);" class="animable" id="el0i1e11s9k61b"></rect></g><g id="elrvhw8nnidh"><rect x="74.21" y="309.43" width="76.06" height="1.17" style="fill: rgb(224, 224, 224); transform-origin: 112.24px 310.015px; transform: rotate(180deg);" class="animable" id="elm22c1pinoid"></rect></g><g id="ela2bckokbzwr"><rect x="74.21" y="321.92" width="76.06" height="1.17" style="fill: rgb(224, 224, 224); transform-origin: 112.24px 322.505px; transform: rotate(180deg);" class="animable" id="elp2yewtekl4s"></rect></g><g id="elzr8f33ra33g"><rect x="74.21" y="334.41" width="76.06" height="1.17" style="fill: rgb(224, 224, 224); transform-origin: 112.24px 334.995px; transform: rotate(180deg);" class="animable" id="el83sec10e7m"></rect></g><g id="elhsr0rbnz4jq"><rect x="74.21" y="346.89" width="76.06" height="1.17" style="fill: rgb(224, 224, 224); transform-origin: 112.24px 347.475px; transform: rotate(180deg);" class="animable" id="elq7ogfwdp9fm"></rect></g><g id="eltjcnzv8z7tc"><rect x="74.21" y="359.38" width="76.06" height="1.17" style="fill: rgb(224, 224, 224); transform-origin: 112.24px 359.965px; transform: rotate(180deg);" class="animable" id="ellxwrgin887"></rect></g><g id="el1938u635phwi"><rect x="74.21" y="371.86" width="76.06" height="1.17" style="fill: rgb(224, 224, 224); transform-origin: 112.24px 372.445px; transform: rotate(180deg);" class="animable" id="eln38k58tlyg"></rect></g><g id="el901ndytpou8"><rect x="257.35" y="185.72" width="56.99" height="196.68" style="fill: rgb(240, 240, 240); transform-origin: 285.845px 284.06px; transform: rotate(180deg);" class="animable" id="elohodaf3phd"></rect></g><g id="eljv76zd3t5u9"><rect x="293.98" y="195.88" width="9.15" height="31.57" style="fill: rgb(230, 230, 230); transform-origin: 298.555px 211.665px; transform: rotate(180deg);" class="animable" id="elmds159d5nwj"></rect></g><g id="elb0h0u64f5tg"><rect x="271.54" y="195.88" width="9.15" height="31.57" style="fill: rgb(230, 230, 230); transform-origin: 276.115px 211.665px; transform: rotate(180deg);" class="animable" id="elvjf119xnrmk"></rect></g><g id="elh0301o85imf"><rect x="293.98" y="236.76" width="9.15" height="31.57" style="fill: rgb(230, 230, 230); transform-origin: 298.555px 252.545px; transform: rotate(180deg);" class="animable" id="elhd9f5zyrg36"></rect></g><g id="eluk0daxn0bk"><rect x="271.54" y="236.76" width="9.15" height="31.57" style="fill: rgb(230, 230, 230); transform-origin: 276.115px 252.545px; transform: rotate(180deg);" class="animable" id="ellzgh3o83z7"></rect></g><g id="elqybarbd1a4h"><rect x="293.98" y="277.64" width="9.15" height="31.57" style="fill: rgb(230, 230, 230); transform-origin: 298.555px 293.425px; transform: rotate(180deg);" class="animable" id="elgg78jvh6edu"></rect></g><g id="el1tq7cxjz6jl"><rect x="271.54" y="277.64" width="9.15" height="31.57" style="fill: rgb(230, 230, 230); transform-origin: 276.115px 293.425px; transform: rotate(180deg);" class="animable" id="elmah8wcul8p"></rect></g><g id="elw5yl3c7cqqo"><rect x="293.98" y="318.52" width="9.15" height="31.57" style="fill: rgb(230, 230, 230); transform-origin: 298.555px 334.305px; transform: rotate(180deg);" class="animable" id="ely0afef5ho9"></rect></g><g id="el23bbo3t6avj"><rect x="271.54" y="318.52" width="9.15" height="31.57" style="fill: rgb(230, 230, 230); transform-origin: 276.115px 334.305px; transform: rotate(180deg);" class="animable" id="elu3bh9hvrqgk"></rect></g><polygon points="257.35 185.72 314.34 185.72 300.98 172.09 243.99 172.09 257.35 185.72" style="fill: rgb(255, 255, 255); transform-origin: 279.165px 178.905px;" id="elk0ftkca4hi" class="animable"></polygon><polygon points="257.35 185.72 243.99 172.09 230.62 185.72 230.62 382.4 257.35 382.4 257.35 185.72" style="fill: rgb(230, 230, 230); transform-origin: 243.985px 277.245px;" id="elaq6y9pajt5u" class="animable"></polygon><circle cx="190.26" cy="122.46" r="27.46" style="fill: rgb(250, 250, 250); transform-origin: 190.26px 122.46px;" id="elf65x2rhcugq" class="animable"></circle><path d="M392.84,80.68c-6.83-.66-13.1-5.49-22-6.82-4.43-.66-7,1-9.62,2.56-3.28,2-7.29,3-12.32,2.88a64,64,0,0,1-19.41-3.56c-5.64-1.92-11.53-4.22-16-3.39-8.29,1.52-8.53,7-15.39,7.78s-8.11,4.48-2.42,4.48H399.9C404.88,84.61,399.68,81.33,392.84,80.68Z" style="fill: rgb(245, 245, 245); transform-origin: 346.98px 78.3928px;" id="elupqnouxhyh" class="animable"></path><path d="M98.89,79.54c-2.88,1.69-8.57.67-17.91-.79-5.48-.85-8.2.9-12,2.47-1.52.64-8.2,2.83.52,2.83H118c13.44,0,.94-2.4-1.21-3.33l-.11,0C110.25,77.86,101.76,77.86,98.89,79.54Z" style="fill: rgb(245, 245, 245); transform-origin: 94.6207px 81.2242px;" id="elmxs09zuccea" class="animable"></path><path d="M130,117.84h53c4.64,0-.2-3.06-6.57-3.67s-12.21-5.11-20.54-6.35-8.55,5.5-19.49,5.43C127.56,113.21,121,117.84,130,117.84Z" style="fill: rgb(245, 245, 245); transform-origin: 155.268px 112.754px;" id="elvnt17fmu7ri" class="animable"></path></g><g id="freepik--Shadow--inject-8" class="animable" style="transform-origin: 250px 416.24px;"><ellipse id="freepik--path--inject-8" cx="250" cy="416.24" rx="193.89" ry="11.32" style="fill: rgb(245, 245, 245); transform-origin: 250px 416.24px;" class="animable"></ellipse></g><g id="freepik--App--inject-8" class="animable" style="transform-origin: 191.283px 242.447px;"><path d="M137.12,182.41a1.14,1.14,0,0,1-1.14-1.14V89.71a1.14,1.14,0,1,1,2.28,0v91.56A1.14,1.14,0,0,1,137.12,182.41Z" style="fill: #000000; transform-origin: 137.12px 135.488px;" id="ell4xr90ad9h" class="animable"></path><path d="M167.64,182.41a1.14,1.14,0,0,1-1.14-1.14V89.71a1.15,1.15,0,1,1,2.29,0v91.56A1.15,1.15,0,0,1,167.64,182.41Z" style="fill: #000000; transform-origin: 167.645px 135.431px;" id="elahr2ti1tya6" class="animable"></path><path d="M167.64,121.37a1.15,1.15,0,0,1-.81-.33l-14.45-14.45L137.93,121a1.15,1.15,0,0,1-1.62-1.62L150.76,105,136.31,90.52a1.15,1.15,0,0,1,.81-2h30.52a1.15,1.15,0,0,1,1.06.71,1.14,1.14,0,0,1-.25,1.25L154,105l14.45,14.45a1.14,1.14,0,0,1-.81,2ZM139.88,90.85l12.5,12.5,12.5-12.5Z" style="fill: #000000; transform-origin: 152.389px 104.986px;" id="elh6y7gtivdim" class="animable"></path><path d="M137.12,90.85a1.14,1.14,0,0,1-.81-1.95l15.26-15.26a1.14,1.14,0,0,1,1.62,0L168.45,88.9a1.14,1.14,0,0,1,0,1.62,1.16,1.16,0,0,1-1.62,0L152.38,76.07,137.93,90.52A1.15,1.15,0,0,1,137.12,90.85Z" style="fill: #000000; transform-origin: 152.38px 82.0761px;" id="elpg0r2rszfig" class="animable"></path><path d="M198.16,90.85a1.17,1.17,0,0,1-.81-.33L182.9,76.07,168.45,90.52a1.16,1.16,0,0,1-1.62,0,1.14,1.14,0,0,1,0-1.62l15.26-15.26a1.14,1.14,0,0,1,1.62,0L199,88.9a1.14,1.14,0,0,1-.81,1.95Z" style="fill: #000000; transform-origin: 182.915px 82.0761px;" id="el83kfdvkjzr" class="animable"></path><path d="M198.16,90.85a1.17,1.17,0,0,1-.81-.33,1.14,1.14,0,0,1,0-1.62l15.26-15.26a1.14,1.14,0,0,1,1.62,0L229.49,88.9a1.14,1.14,0,0,1,0,1.62,1.16,1.16,0,0,1-1.62,0L213.42,76.07,199,90.52A1.15,1.15,0,0,1,198.16,90.85Z" style="fill: #000000; transform-origin: 213.42px 82.0763px;" id="elps4rbm5kuk" class="animable"></path><path d="M137.12,151.89a1.14,1.14,0,0,1-.81-1.95l30.52-30.52a1.15,1.15,0,0,1,1.62,1.62l-30.52,30.52A1.15,1.15,0,0,1,137.12,151.89Z" style="fill: #000000; transform-origin: 152.345px 135.521px;" id="eleakf53bj4y8" class="animable"></path><path d="M167.64,151.89a1.15,1.15,0,0,1-.81-.33L136.31,121a1.15,1.15,0,0,1,1.62-1.62l30.52,30.52a1.14,1.14,0,0,1-.81,1.95Z" style="fill: #000000; transform-origin: 152.415px 135.501px;" id="el2zihb7luasw" class="animable"></path><path d="M167.64,182.41H137.12a1.14,1.14,0,0,1-1.06-.7,1.16,1.16,0,0,1,.25-1.25L150.76,166l-14.45-14.45a1.15,1.15,0,0,1,1.62-1.62l14.45,14.45,14.45-14.45a1.15,1.15,0,0,1,1.62,1.62L154,166l14.45,14.45a1.14,1.14,0,0,1-.81,1.95Zm-27.76-2.28h25l-12.5-12.5Z" style="fill: rgb(38, 50, 56); transform-origin: 152.382px 166.036px;" id="elrmhwfccm60d" class="animable"></path><polygon points="126.44 106.19 110.14 106.19 112.19 89.71 124.38 89.71 126.44 106.19" style="fill: #000000; transform-origin: 118.29px 97.95px;" id="elyvkqqrrcxk9" class="animable"></polygon><path d="M126.44,107.33h-16.3a1.17,1.17,0,0,1-.86-.38,1.19,1.19,0,0,1-.28-.9l2.06-16.48a1.14,1.14,0,0,1,1.13-1h12.19a1.15,1.15,0,0,1,1.14,1l2,16.48a1.14,1.14,0,0,1-1.13,1.28Zm-15-2.29h13.7l-1.77-14.19H113.21Z" style="fill: #000000; transform-origin: 118.261px 97.95px;" id="el5abbeoxvea3" class="animable"></path><path d="M228.68,90.85H107.56a1.15,1.15,0,1,1,0-2.29H228.68a1.15,1.15,0,1,1,0,2.29Z" style="fill: rgb(38, 50, 56); transform-origin: 168.12px 89.705px;" id="ellemip6rn0bj" class="animable"></path><path d="M213.42,75.59h-61a1.15,1.15,0,0,1,0-2.29h61a1.15,1.15,0,1,1,0,2.29Z" style="fill: #000000; transform-origin: 183.027px 74.445px;" id="eliz9dsd1hpz" class="animable"></path><rect x="115.77" y="140.95" width="140.21" height="270.65" rx="11.27" style="fill: #000000; transform-origin: 185.875px 276.275px;" id="elctlbkry2dvr" class="animable"></rect><g id="eljp46lkjes2"><rect x="115.77" y="140.95" width="140.21" height="270.65" rx="11.27" style="opacity: 0.2; transform-origin: 185.875px 276.275px;" class="animable" id="el1svxh8wwsnc"></rect></g><rect x="130.17" y="140.95" width="140.21" height="270.65" rx="11.27" style="fill: #000000; transform-origin: 200.275px 276.275px;" id="el0pfkxue5w7rh" class="animable"></rect><g id="elrze9logg6ol"><rect x="69.65" y="210.86" width="261.26" height="130.82" rx="6.57" style="fill: rgb(255, 255, 255); transform-origin: 200.28px 276.27px; transform: rotate(90deg);" class="animable" id="elkujgqwao4cf"></rect></g><g id="elh6qz6shyid"><rect x="141.25" y="187.25" width="127.4" height="112.46" rx="8.14" style="opacity: 0.1; transform-origin: 204.95px 243.48px; transform: rotate(87.22deg);" class="animable" id="elagz1spxznsi"></rect></g><g id="elitcljnws3r"><rect x="193.55" y="94.47" width="13.46" height="123.31" rx="4.38" style="fill: #000000; transform-origin: 200.28px 156.125px; transform: rotate(90deg);" class="animable" id="el56nwujkm4yn"></rect></g><path d="M151.66,159.28h0a3.16,3.16,0,0,1-3.16-3.15h0a3.17,3.17,0,0,1,3.16-3.16h0a3.17,3.17,0,0,1,3.16,3.16h0A3.16,3.16,0,0,1,151.66,159.28Z" style="fill: rgb(255, 255, 255); transform-origin: 151.66px 156.125px;" id="elbm8z3oo11kb" class="animable"></path><path d="M161.05,159.28h0a3.16,3.16,0,0,1-3.16-3.15h0a3.17,3.17,0,0,1,3.16-3.16h0a3.16,3.16,0,0,1,3.15,3.16h0A3.16,3.16,0,0,1,161.05,159.28Z" style="fill: rgb(255, 255, 255); transform-origin: 161.045px 156.125px;" id="elac2w4k3n9y6" class="animable"></path><path d="M170.44,159.28h0a3.16,3.16,0,0,1-3.16-3.15h0a3.17,3.17,0,0,1,3.16-3.16h0a3.16,3.16,0,0,1,3.15,3.16h0A3.16,3.16,0,0,1,170.44,159.28Z" style="fill: rgb(255, 255, 255); transform-origin: 170.435px 156.125px;" id="eln65bjabdgj" class="animable"></path><rect x="247.04" y="152.21" width="7.82" height="7.82" rx="1.72" style="fill: rgb(255, 255, 255); transform-origin: 250.95px 156.12px;" id="eldju2ldc0j5" class="animable"></rect><g id="elz8b6ko5dy39"><circle cx="169.4" cy="333.45" r="21.91" style="fill: #000000; transform-origin: 169.4px 333.45px; transform: rotate(-22.5deg);" class="animable" id="elb14u4m72ibo"></circle></g><path d="M247.61,323.49H204.89a2.75,2.75,0,0,1-2.74-2.74h0a2.75,2.75,0,0,1,2.74-2.74h42.72a2.74,2.74,0,0,1,2.74,2.74h0A2.74,2.74,0,0,1,247.61,323.49Z" style="fill: #000000; transform-origin: 226.25px 320.75px;" id="elobqcxaoaqei" class="animable"></path><path d="M247.61,336.19H204.89a2.75,2.75,0,0,1-2.74-2.74h0a2.75,2.75,0,0,1,2.74-2.74h42.72a2.74,2.74,0,0,1,2.74,2.74h0A2.74,2.74,0,0,1,247.61,336.19Z" style="fill: #000000; transform-origin: 226.25px 333.45px;" id="elzq21eanerh9" class="animable"></path><rect x="202.15" y="343.41" width="48.2" height="5.48" rx="2.74" style="fill: #000000; transform-origin: 226.25px 346.15px;" id="elu3ox615vc1n" class="animable"></rect><rect x="147.49" y="367.66" width="105.58" height="31.85" rx="9.82" style="fill: rgb(224, 224, 224); transform-origin: 200.28px 383.585px;" id="el8pky6sll4iy" class="animable"></rect><g id="el9ivsj7gjxe"><rect x="151.55" y="180.97" width="127.4" height="112.46" rx="8.14" style="fill: rgb(255, 255, 255); transform-origin: 215.25px 237.2px; transform: rotate(85.54deg);" class="animable" id="elh8nd16knoeb"></rect></g><path d="M171.61,305a8.64,8.64,0,0,1-8.6-8l-8.64-110.79a8.65,8.65,0,0,1,7.94-9.28l95.9-7.48a8.65,8.65,0,0,1,9.28,7.94l8.64,110.79a8.65,8.65,0,0,1-7.94,9.29l-95.9,7.47C172.06,305,171.84,305,171.61,305Zm-7.6-8a7.64,7.64,0,0,0,8.2,7l95.9-7.48a7.65,7.65,0,0,0,7-8.21l-8.64-110.79a7.64,7.64,0,0,0-8.21-7l-95.89,7.48a7.65,7.65,0,0,0-7,8.21Z" style="fill: #000000; transform-origin: 215.25px 237.213px;" id="eldn9y4xjl59v" class="animable"></path><g id="el0m0mm3ni82y"><rect x="199.69" y="225.8" width="37.49" height="104.46" rx="6.43" style="fill: #000000; transform-origin: 218.435px 278.03px; transform: rotate(85.54deg);" class="animable" id="el3j0a34i5e7p"></rect></g><g id="elggn5hut6mf"><rect x="149.08" y="191.96" width="78.16" height="53.34" rx="6.51" style="fill: #000000; opacity: 0.2; transform-origin: 188.16px 218.63px; transform: rotate(85.54deg);" class="animable" id="elw2l3eajp24n"></rect></g><g id="elac1r2t3yidw"><rect x="229.99" y="163.62" width="21.51" height="45.01" rx="5.23" style="fill: #000000; opacity: 0.2; transform-origin: 240.745px 186.125px; transform: rotate(85.54deg);" class="animable" id="elfuxtgvxoqdv"></rect></g><g id="el5ti2unw21in"><rect x="232.19" y="191.86" width="21.51" height="45.01" rx="5.23" style="fill: #000000; opacity: 0.4; transform-origin: 242.945px 214.365px; transform: rotate(85.54deg);" class="animable" id="elqn26bgnedxc"></rect></g><g id="elo7xm38bdjpf"><rect x="234.39" y="220.1" width="21.51" height="45.01" rx="5.23" style="fill: #000000; opacity: 0.6; transform-origin: 245.145px 242.605px; transform: rotate(85.54deg);" class="animable" id="el5w39earzb2u"></rect></g><path d="M226.25,156.64a.51.51,0,0,1-.51-.51V89.71a.51.51,0,1,1,1,0v66.42A.51.51,0,0,1,226.25,156.64Z" style="fill: rgb(38, 50, 56); transform-origin: 226.24px 122.87px;" id="elujd88yjlh7" class="animable"></path><path d="M232.6,167H219.9a2.35,2.35,0,0,1-2.25-1.68l-2.73-9.28a2.35,2.35,0,0,1,2.25-3h18.16a2.35,2.35,0,0,1,2.25,3l-2.73,9.28A2.34,2.34,0,0,1,232.6,167Z" style="fill: rgb(38, 50, 56); transform-origin: 226.25px 160.02px;" id="el8l5s5xzplfl" class="animable"></path><path d="M226.25,181.38a1.14,1.14,0,0,1,0-2.28,4,4,0,0,0,0-8,1.14,1.14,0,0,1-1.14-1.14V167a1.15,1.15,0,0,1,2.29,0v1.91a6.28,6.28,0,0,1-1.15,12.45Z" style="fill: rgb(38, 50, 56); transform-origin: 228.81px 173.669px;" id="elfrenidwpezn" class="animable"></path></g><g id="freepik--Character--inject-8" class="animable" style="transform-origin: 351.479px 280.902px;"><path d="M402.72,196.57c1.27,2.93,2.31,5.71,3.33,8.63S408,211,408.79,214a86.06,86.06,0,0,1,2.08,9.31,48.8,48.8,0,0,1,.62,5.07,29.76,29.76,0,0,1-.15,6l-.06.41a3.75,3.75,0,0,1-.13.58,65.38,65.38,0,0,1-3.23,8c-1.17,2.51-2.5,4.88-3.82,7.23s-2.76,4.6-4.25,6.83-3,4.39-4.7,6.54a3.88,3.88,0,0,1-6.72-3.62l0-.09c.8-2.41,1.69-4.87,2.54-7.29s1.73-4.82,2.54-7.22,1.62-4.79,2.34-7.12,1.35-4.67,1.79-6.8l-.19,1a18.23,18.23,0,0,0-.29-2.87c-.2-1.15-.45-2.41-.77-3.68s-.67-2.57-1.06-3.88-.79-2.63-1.23-4c-.88-2.65-1.79-5.33-2.76-8l-2.93-7.93-.05-.14a7.72,7.72,0,0,1,14.33-5.75Z" style="fill: #000000; transform-origin: 399.691px 228.582px;" id="elct9d1y9bo3w" class="animable"></path><g id="elzksm5596vyp"><path d="M402.72,196.57c1.27,2.93,2.31,5.71,3.33,8.63S408,211,408.79,214a86.06,86.06,0,0,1,2.08,9.31,48.8,48.8,0,0,1,.62,5.07,29.76,29.76,0,0,1-.15,6l-.06.41a3.75,3.75,0,0,1-.13.58,65.38,65.38,0,0,1-3.23,8c-1.17,2.51-2.5,4.88-3.82,7.23s-2.76,4.6-4.25,6.83-3,4.39-4.7,6.54a3.88,3.88,0,0,1-6.72-3.62l0-.09c.8-2.41,1.69-4.87,2.54-7.29s1.73-4.82,2.54-7.22,1.62-4.79,2.34-7.12,1.35-4.67,1.79-6.8l-.19,1a18.23,18.23,0,0,0-.29-2.87c-.2-1.15-.45-2.41-.77-3.68s-.67-2.57-1.06-3.88-.79-2.63-1.23-4c-.88-2.65-1.79-5.33-2.76-8l-2.93-7.93-.05-.14a7.72,7.72,0,0,1,14.33-5.75Z" style="fill: rgb(255, 255, 255); opacity: 0.7; transform-origin: 399.691px 228.582px;" class="animable" id="eln495yv2ohc"></path></g><path d="M388.89,259l-5.11,2.68,7.15,7.43a17.62,17.62,0,0,0,3.63-3.47,4.48,4.48,0,0,0-.9-6.24h0A4.48,4.48,0,0,0,388.89,259Z" style="fill: rgb(127, 62, 59); transform-origin: 389.61px 263.802px;" id="elitfogbpgrns" class="animable"></path><path d="M381,270.19l2.95,2.18a3,3,0,0,0,3.85-.25l3.09-3-7.15-7.43L380.46,266A3,3,0,0,0,381,270.19Z" style="fill: rgb(127, 62, 59); transform-origin: 385.366px 267.321px;" id="el09qx55aq0py" class="animable"></path><path d="M307.44,211.63l-5.27-6.8-6.05,8.35s5.52,5.57,8.95,3.12Z" style="fill: rgb(127, 62, 59); transform-origin: 301.78px 210.876px;" id="elp392r28q488" class="animable"></path><path d="M293.32,203.64l-1.63,3.28a3,3,0,0,0,.93,3.75l3.5,2.51,6.05-8.35-4.8-2.51A3,3,0,0,0,293.32,203.64Z" style="fill: rgb(127, 62, 59); transform-origin: 296.776px 207.584px;" id="elzo9ap4dhv7" class="animable"></path><path d="M394.86,417.14h-6.34l-.78-.73-1.17.73c-3.87,0-9.09-.14-11.58-1a1.63,1.63,0,0,1,.51-1.62s10.25-3.17,11.17-5.3h7.77" style="fill: rgb(38, 50, 56); transform-origin: 384.901px 413.18px;" id="el20difztp46d" class="animable"></path><path d="M387,327.49c-1.27-32.78.8-58.69-2.31-71.26l-29-4.69s5.34,55.53,11.76,78.5,18,79.7,18,79.7h9.87S395.56,354.39,387,327.49Z" style="fill: #000000; transform-origin: 375.505px 330.64px;" id="el230j1reyq1e" class="animable"></path><g id="elwtzfq0rgbx"><path d="M366,279l-5.39,14c1.72,12.25,3.78,24.78,6,33.78C369,310.44,367.27,283.64,366,279Z" style="opacity: 0.2; transform-origin: 364.207px 302.89px;" class="animable" id="el81s44efyj7u"></path></g><path d="M312.72,407.74s14.59,1.11,16.19-.65l7.65,2.35-2.14,7.7-4.72-1.44-.53-.93-1.38.34c-3.82-1.17-13.92-4.42-16.1-6A1.66,1.66,0,0,1,312.72,407.74Z" style="fill: rgb(38, 50, 56); transform-origin: 324.125px 412.115px;" id="elsgmudfo022" class="animable"></path><path d="M356.33,329.48a285.28,285.28,0,0,0,19.2-74.72l-31.66-5.18s-4.7,57.27-6.75,80.81C335,354.86,326.77,407,326.77,407L337,410.1S355.27,359.92,356.33,329.48Z" style="fill: #000000; transform-origin: 351.15px 329.84px;" id="els3rgatuvlu" class="animable"></path><path d="M387.35,166.05c-1.86,6-3,14.69-1.2,19.6-3.5,2.42-9,5.24-15.67,4.17s-4.77-5.4-2.65-7.46c5.13-1.71,5.67-4.12,4.82-6.43Z" style="fill: rgb(127, 62, 59); transform-origin: 376.601px 178.052px;" id="elbfgq4e9yygq" class="animable"></path><path d="M392.15,188.05a47.59,47.59,0,0,0-5.08-5.23c-1.56-1.08-14.51-2.69-17.6-2.58s-7.38,4.06-7.38,4.06Z" style="fill: #000000; transform-origin: 377.12px 184.142px;" id="elorlwx46fys" class="animable"></path><g id="el30978bg6ubq"><path d="M392.15,188.05a47.59,47.59,0,0,0-5.08-5.23c-1.56-1.08-14.51-2.69-17.6-2.58s-7.38,4.06-7.38,4.06Z" style="fill: rgb(255, 255, 255); opacity: 0.7; transform-origin: 377.12px 184.142px;" class="animable" id="el0q5z602m778"></path></g><path d="M370,158.88c-.2.59-.67,1-1.05.84s-.55-.72-.35-1.32.67-1,1.05-.83S370.2,158.29,370,158.88Z" style="fill: rgb(38, 50, 56); transform-origin: 369.3px 158.643px;" id="el07tzs1cftsdj" class="animable"></path><path d="M369.77,159.72a22.2,22.2,0,0,1-4.49,4.11,3.62,3.62,0,0,0,2.65,1.49Z" style="fill: rgb(99, 15, 15); transform-origin: 367.525px 162.52px;" id="elyhmr3s7eeaa" class="animable"></path><path d="M370,154.79a.33.33,0,0,0,.28.2,2.91,2.91,0,0,1,2.22,1.43.35.35,0,0,0,.48.17.37.37,0,0,0,.17-.49,3.61,3.61,0,0,0-2.78-1.84.38.38,0,0,0-.37.53Z" style="fill: rgb(38, 50, 56); transform-origin: 371.577px 155.444px;" id="elox7y5bhyp5m" class="animable"></path><path d="M390.53,163.93c-2.85,7.12-4.15,11.44-9,13.93-7.37,3.75-15.24-2.63-14.58-10.48.59-7.06,5.14-17.52,13.2-18A10.57,10.57,0,0,1,390.53,163.93Z" style="fill: rgb(127, 62, 59); transform-origin: 379.113px 164.164px;" id="elgyt7358k8j6" class="animable"></path><path d="M374.52,164.16a11.61,11.61,0,0,0,11.32,13c7.16,0,7.27-10.2,6-12.55,3.8-.66,6-5.88,3.68-9.18,3.49-2.74-4.58-6.9-14.4-7.44-10.83-.6-8.85,5.78-5.24,7.71C372.41,156.73,372.05,162.91,374.52,164.16Z" style="fill: rgb(38, 50, 56); transform-origin: 384.698px 162.555px;" id="eltudsvobfo3e" class="animable"></path><path d="M372.44,150.72s.69,8.39,7.74,13.44,13.32,5.52,13.32,5.52l1.74-5.52s-15.92-9.59-21.3-14.95A17.89,17.89,0,0,0,372.44,150.72Z" style="fill: #000000; transform-origin: 383.84px 159.445px;" id="el7ovs8xho9jy" class="animable"></path><g id="elo3tmkunufrf"><path d="M372.44,150.72s.69,8.39,7.74,13.44,13.32,5.52,13.32,5.52l1.74-5.52s-15.92-9.59-21.3-14.95A17.89,17.89,0,0,0,372.44,150.72Z" style="fill: rgb(255, 255, 255); opacity: 0.6; transform-origin: 383.84px 159.445px;" class="animable" id="elolzw79rrvfq"></path></g><path d="M378.26,164.26a6.42,6.42,0,0,1-3.92,2.66c-2,.39-2.64-1.65-1.75-3.62.8-1.77,2.82-4.11,4.69-3.61S379.46,162.54,378.26,164.26Z" style="fill: rgb(127, 62, 59); transform-origin: 375.585px 163.295px;" id="el1w1iz0fe5fq" class="animable"></path><path d="M391.84,187.15c-10.14-2.79-24.81-4.81-34.79-4.54a11.15,11.15,0,0,0-10.53,8.68c-3.38,14.66-3.9,41.08-4.88,67.61,21.76,11,46.13,6.64,46.13,6.64,1.29-5.19,1-22.86.55-32.34,2.7-9.32,7.59-19.73,11.3-32.09A11.18,11.18,0,0,0,391.84,187.15Z" style="fill: #000000; transform-origin: 370.86px 224.489px;" id="el241gol1gpb4" class="animable"></path><g id="elb6qicock65l"><path d="M391.84,187.15c-10.14-2.79-24.81-4.81-34.79-4.54a11.15,11.15,0,0,0-10.53,8.68c-3.38,14.66-3.9,41.08-4.88,67.61,21.76,11,46.13,6.64,46.13,6.64,1.29-5.19,1-22.86.55-32.34,2.7-9.32,7.59-19.73,11.3-32.09A11.18,11.18,0,0,0,391.84,187.15Z" style="fill: rgb(255, 255, 255); opacity: 0.7; transform-origin: 370.86px 224.489px;" class="animable" id="elv4haqc1jko8"></path></g><path d="M359.86,181.14c-8.36-.48-13.56,3.65-15.69,16.27s-4.43,41.23-3.54,51.55c28.07,11.81,45.48,7,49.23,4.25,1.47-2.25.93-9.24.19-12a42.7,42.7,0,0,0,2.77-15.52c4.16-4,6-11.67,6.14-14.65,3.66-4.88,4.15-15.93,2.12-19.08S393.15,183,359.86,181.14Z" style="fill: rgb(38, 50, 56); transform-origin: 371.35px 218.825px;" id="elu2x2uljjvzl" class="animable"></path><g id="elcrky4u83gdq"><path d="M344.66,251.07h0a.5.5,0,0,1-.5-.5c0-20.28,2.71-50.19,6.52-60.68a.5.5,0,0,1,.64-.3.49.49,0,0,1,.3.64c-3.41,9.39-6.44,37.59-6.46,60.34A.5.5,0,0,1,344.66,251.07Z" style="fill: rgb(255, 255, 255); opacity: 0.2; transform-origin: 347.906px 220.315px;" class="animable" id="elopi2mqe8y"></path></g><path d="M359.72,195c-1.52,2.77-3.06,5.24-4.72,7.79s-3.4,5-5.3,7.42a80.53,80.53,0,0,1-6.16,7.16,43.53,43.53,0,0,1-3.74,3.47,26.16,26.16,0,0,1-5,3.33l-.36.18a3.83,3.83,0,0,1-.56.22,24.74,24.74,0,0,1-9.26.9,30.33,30.33,0,0,1-4.14-.61,39.14,39.14,0,0,1-3.87-1,49.12,49.12,0,0,1-7.1-2.91c-1.13-.57-2.22-1.18-3.3-1.82s-2.08-1.3-3.21-2.12a3.86,3.86,0,0,1,3.14-6.89l.34.08,3.13.73c1.06.25,2.13.47,3.19.67a61.3,61.3,0,0,0,6.24.9,31.72,31.72,0,0,0,5.75,0,13.38,13.38,0,0,0,4.42-1.11l-.92.41a15.61,15.61,0,0,0,2-1.75c.77-.79,1.6-1.69,2.4-2.65s1.6-2,2.38-3.05,1.59-2.14,2.36-3.26c1.53-2.22,3.06-4.51,4.55-6.84s3-4.74,4.38-7l.07-.12A7.72,7.72,0,0,1,359.72,195Z" style="fill: #000000; transform-origin: 331.096px 204.459px;" id="el23vs0rqjdz9" class="animable"></path><g id="eldcim6zg93j5"><path d="M359.72,195c-1.52,2.77-3.06,5.24-4.72,7.79s-3.4,5-5.3,7.42a80.53,80.53,0,0,1-6.16,7.16,43.53,43.53,0,0,1-3.74,3.47,26.16,26.16,0,0,1-5,3.33l-.36.18a3.83,3.83,0,0,1-.56.22,24.74,24.74,0,0,1-9.26.9,30.33,30.33,0,0,1-4.14-.61,39.14,39.14,0,0,1-3.87-1,49.12,49.12,0,0,1-7.1-2.91c-1.13-.57-2.22-1.18-3.3-1.82s-2.08-1.3-3.21-2.12a3.86,3.86,0,0,1,3.14-6.89l.34.08,3.13.73c1.06.25,2.13.47,3.19.67a61.3,61.3,0,0,0,6.24.9,31.72,31.72,0,0,0,5.75,0,13.38,13.38,0,0,0,4.42-1.11l-.92.41a15.61,15.61,0,0,0,2-1.75c.77-.79,1.6-1.69,2.4-2.65s1.6-2,2.38-3.05,1.59-2.14,2.36-3.26c1.53-2.22,3.06-4.51,4.55-6.84s3-4.74,4.38-7l.07-.12A7.72,7.72,0,0,1,359.72,195Z" style="fill: rgb(255, 255, 255); opacity: 0.7; transform-origin: 331.096px 204.459px;" class="animable" id="el2pde6p46gpo"></path></g><path d="M395.38,167.67a1,1,0,0,1-1,.24,48.62,48.62,0,0,1-15.26-9.36c-7.57-6.94-8.22-14.89-4.86-11.09,1.86-2,9.76-4.44,17.08-1.27C399.08,149.56,402.81,160,395.38,167.67Z" style="fill: #000000; transform-origin: 385.866px 156.31px;" id="el5salrj5dhef" class="animable"></path><path d="M388.91,145.35a14.15,14.15,0,0,1,3.8,14.37,16.35,16.35,0,0,0,4.64-1.78s1.17-5.61-1-9.22S389.38,144.2,388.91,145.35Z" style="fill: #000000; transform-origin: 393.287px 152.301px;" id="elari9vkuizor" class="animable"></path><g id="el8mfw90z09a7"><path d="M392.71,159.72a14.15,14.15,0,0,0-3.8-14.37.82.82,0,0,1,.62-.41C391.05,145.92,395.24,151.87,392.71,159.72Z" style="opacity: 0.2; transform-origin: 391.207px 152.33px;" class="animable" id="el7ekrywsal69"></path></g></g><defs>     <filter id="active" height="200%">         <feMorphology in="SourceAlpha" result="DILATED" operator="dilate" radius="2"></feMorphology>                <feFlood flood-color="#32DFEC" flood-opacity="1" result="PINK"></feFlood>        <feComposite in="PINK" in2="DILATED" operator="in" result="OUTLINE"></feComposite>        <feMerge>            <feMergeNode in="OUTLINE"></feMergeNode>            <feMergeNode in="SourceGraphic"></feMergeNode>        </feMerge>    </filter>    <filter id="hover" height="200%">        <feMorphology in="SourceAlpha" result="DILATED" operator="dilate" radius="2"></feMorphology>                <feFlood flood-color="#ff0000" flood-opacity="0.5" result="PINK"></feFlood>        <feComposite in="PINK" in2="DILATED" operator="in" result="OUTLINE"></feComposite>        <feMerge>            <feMergeNode in="OUTLINE"></feMergeNode>            <feMergeNode in="SourceGraphic"></feMergeNode>        </feMerge>            <feColorMatrix type="matrix" values="0   0   0   0   0                0   1   0   0   0                0   0   0   0   0                0   0   0   1   0 "></feColorMatrix>    </filter></defs></svg>